<svg width="402" height="87" viewBox="0 0 402 87" fill="none" xmlns="http://www.w3.org/2000/svg">
<g clip-path="url(#clip0_1_15)">
<path d="M4.55114 17.6364H18.2045L32.625 52.8182H33.2386L47.6591 17.6364H61.3125V70H50.5739V35.9176H50.1392L36.5881 69.7443H29.2756L15.7244 35.7898H15.2898V70H4.55114V17.6364ZM88.1271 70.767C84.0874 70.767 80.6101 69.9489 77.6953 68.3125C74.7976 66.6591 72.5646 64.3239 70.9964 61.3068C69.4283 58.2727 68.6442 54.6847 68.6442 50.5426C68.6442 46.5028 69.4283 42.9574 70.9964 39.9062C72.5646 36.8551 74.772 34.4773 77.6186 32.7727C80.4822 31.0682 83.8402 30.2159 87.6925 30.2159C90.2834 30.2159 92.6953 30.6335 94.9283 31.4688C97.1783 32.2869 99.1385 33.5227 100.809 35.1761C102.496 36.8295 103.809 38.9091 104.746 41.4148C105.684 43.9034 106.153 46.8182 106.153 50.1591V53.1506H72.9908V46.4006H95.8999C95.8999 44.8324 95.559 43.4432 94.8771 42.233C94.1953 41.0227 93.2493 40.0767 92.0391 39.3949C90.8459 38.696 89.4567 38.3466 87.8715 38.3466C86.218 38.3466 84.7521 38.7301 83.4737 39.4972C82.2124 40.2472 81.2237 41.2614 80.5078 42.5398C79.7919 43.8011 79.4254 45.2074 79.4084 46.7585V53.1761C79.4084 55.1193 79.7663 56.7983 80.4822 58.2131C81.2152 59.6278 82.2464 60.7188 83.576 61.4858C84.9055 62.2528 86.4822 62.6364 88.3061 62.6364C89.5163 62.6364 90.6243 62.4659 91.63 62.125C92.6357 61.7841 93.4964 61.2727 94.2124 60.5909C94.9283 59.9091 95.4737 59.0739 95.8487 58.0852L105.923 58.75C105.411 61.1705 104.363 63.2841 102.778 65.0909C101.21 66.8807 99.1811 68.2784 96.6925 69.2841C94.2209 70.2727 91.3658 70.767 88.1271 70.767ZM130.954 85.5455C127.425 85.5455 124.4 85.0597 121.877 84.0881C119.371 83.1335 117.377 81.8295 115.894 80.1761C114.411 78.5227 113.448 76.6648 113.005 74.6023L123.079 73.2472C123.386 74.0313 123.871 74.7642 124.536 75.446C125.201 76.1278 126.079 76.6733 127.17 77.0824C128.278 77.5085 129.624 77.7216 131.21 77.7216C133.579 77.7216 135.531 77.142 137.065 75.983C138.616 74.8409 139.391 72.9233 139.391 70.2301V63.0455H138.931C138.454 64.1364 137.738 65.1676 136.783 66.1392C135.829 67.1108 134.602 67.9034 133.102 68.517C131.602 69.1307 129.812 69.4375 127.732 69.4375C124.783 69.4375 122.099 68.7557 119.678 67.392C117.275 66.0114 115.357 63.9062 113.925 61.0767C112.511 58.2301 111.803 54.6335 111.803 50.2869C111.803 45.8381 112.528 42.1222 113.977 39.1392C115.425 36.1562 117.352 33.9233 119.755 32.4403C122.175 30.9574 124.826 30.2159 127.707 30.2159C129.906 30.2159 131.746 30.5909 133.229 31.3409C134.712 32.0739 135.906 32.9943 136.809 34.1023C137.729 35.1932 138.437 36.267 138.931 37.3239H139.34V30.7273H150.156V70.3835C150.156 73.7244 149.337 76.5199 147.701 78.7699C146.065 81.0199 143.798 82.7074 140.9 83.8324C138.019 84.9744 134.704 85.5455 130.954 85.5455ZM131.184 61.2557C132.94 61.2557 134.423 60.821 135.633 59.9517C136.86 59.0653 137.798 57.804 138.445 56.1676C139.11 54.5142 139.442 52.5369 139.442 50.2358C139.442 47.9347 139.119 45.9403 138.471 44.2528C137.823 42.5483 136.886 41.2273 135.658 40.2898C134.431 39.3523 132.94 38.8835 131.184 38.8835C129.394 38.8835 127.886 39.3693 126.658 40.3409C125.431 41.2955 124.502 42.625 123.871 44.3295C123.241 46.0341 122.925 48.0028 122.925 50.2358C122.925 52.5028 123.241 54.4631 123.871 56.1165C124.519 57.7528 125.448 59.0227 126.658 59.9261C127.886 60.8125 129.394 61.2557 131.184 61.2557ZM170.022 70.7415C167.516 70.7415 165.283 70.3068 163.323 69.4375C161.363 68.5511 159.812 67.2472 158.67 65.5256C157.545 63.7869 156.982 61.6222 156.982 59.0312C156.982 56.8494 157.383 55.017 158.184 53.5341C158.985 52.0511 160.076 50.858 161.457 49.9545C162.837 49.0511 164.406 48.3693 166.161 47.9091C167.934 47.4489 169.792 47.125 171.735 46.9375C174.019 46.6989 175.86 46.4773 177.258 46.2727C178.656 46.0511 179.67 45.7273 180.3 45.3011C180.931 44.875 181.246 44.2443 181.246 43.4091V43.2557C181.246 41.6364 180.735 40.3835 179.712 39.4972C178.707 38.6108 177.275 38.1676 175.417 38.1676C173.457 38.1676 171.897 38.6023 170.738 39.4716C169.579 40.3239 168.812 41.3977 168.437 42.6932L158.363 41.875C158.874 39.4886 159.88 37.4261 161.38 35.6875C162.88 33.9318 164.815 32.5852 167.184 31.6477C169.57 30.6932 172.332 30.2159 175.468 30.2159C177.65 30.2159 179.738 30.4716 181.732 30.983C183.744 31.4943 185.525 32.2869 187.076 33.3608C188.644 34.4347 189.88 35.8153 190.783 37.5028C191.687 39.1733 192.138 41.1761 192.138 43.5114V70H181.809V64.554H181.502C180.871 65.7812 180.028 66.8636 178.971 67.8011C177.914 68.7216 176.644 69.446 175.161 69.9744C173.678 70.4858 171.965 70.7415 170.022 70.7415ZM173.141 63.2244C174.744 63.2244 176.158 62.9091 177.386 62.2784C178.613 61.6307 179.576 60.7614 180.275 59.6705C180.974 58.5795 181.323 57.3437 181.323 55.9631V51.7955C180.982 52.017 180.513 52.2216 179.917 52.4091C179.337 52.5795 178.681 52.7415 177.948 52.8949C177.215 53.0312 176.482 53.1591 175.749 53.2784C175.016 53.3807 174.352 53.4744 173.755 53.5597C172.477 53.7472 171.36 54.0455 170.406 54.4545C169.451 54.8636 168.71 55.4176 168.181 56.1165C167.653 56.7983 167.388 57.6506 167.388 58.6733C167.388 60.1562 167.925 61.2898 168.999 62.0739C170.09 62.8409 171.471 63.2244 173.141 63.2244Z" fill="#A00000"/>
<path d="M229.457 32.696C229.253 30.6335 228.375 29.0312 226.824 27.8892C225.273 26.7472 223.168 26.1761 220.509 26.1761C218.702 26.1761 217.176 26.4318 215.932 26.9432C214.688 27.4375 213.733 28.1278 213.068 29.0142C212.42 29.9006 212.097 30.9062 212.097 32.0312C212.063 32.9688 212.259 33.7869 212.685 34.4858C213.128 35.1847 213.733 35.7898 214.5 36.3011C215.267 36.7955 216.153 37.2301 217.159 37.6051C218.165 37.9631 219.239 38.2699 220.381 38.5256L225.085 39.6506C227.369 40.1619 229.466 40.8437 231.375 41.696C233.284 42.5483 234.938 43.5966 236.335 44.8409C237.733 46.0852 238.815 47.5511 239.582 49.2386C240.366 50.9261 240.767 52.8608 240.784 55.0426C240.767 58.2472 239.949 61.0256 238.33 63.3778C236.727 65.7131 234.409 67.5284 231.375 68.8239C228.358 70.1023 224.719 70.7415 220.457 70.7415C216.23 70.7415 212.548 70.0938 209.412 68.7983C206.293 67.5028 203.855 65.5852 202.099 63.0455C200.361 60.4886 199.449 57.3267 199.364 53.5597H210.077C210.196 55.3153 210.699 56.7812 211.585 57.9574C212.489 59.1165 213.69 59.9943 215.19 60.5909C216.707 61.1705 218.42 61.4602 220.33 61.4602C222.205 61.4602 223.832 61.1875 225.213 60.642C226.611 60.0966 227.693 59.3381 228.46 58.3665C229.227 57.3949 229.611 56.2784 229.611 55.017C229.611 53.8409 229.261 52.8523 228.562 52.0511C227.881 51.25 226.875 50.5682 225.545 50.0057C224.233 49.4432 222.622 48.9318 220.713 48.4716L215.011 47.0398C210.597 45.9659 207.111 44.2869 204.554 42.0028C201.997 39.7187 200.727 36.642 200.744 32.7727C200.727 29.6023 201.571 26.8324 203.276 24.4631C204.997 22.0937 207.358 20.2443 210.358 18.9148C213.358 17.5852 216.767 16.9205 220.585 16.9205C224.472 16.9205 227.864 17.5852 230.761 18.9148C233.676 20.2443 235.943 22.0937 237.562 24.4631C239.182 26.8324 240.017 29.5767 240.068 32.696H229.457ZM265.924 70.767C261.884 70.767 258.407 69.9489 255.492 68.3125C252.594 66.6591 250.362 64.3239 248.793 61.3068C247.225 58.2727 246.441 54.6847 246.441 50.5426C246.441 46.5028 247.225 42.9574 248.793 39.9062C250.362 36.8551 252.569 34.4773 255.415 32.7727C258.279 31.0682 261.637 30.2159 265.489 30.2159C268.08 30.2159 270.492 30.6335 272.725 31.4688C274.975 32.2869 276.935 33.5227 278.606 35.1761C280.293 36.8295 281.606 38.9091 282.543 41.4148C283.481 43.9034 283.95 46.8182 283.95 50.1591V53.1506H250.788V46.4006H273.697C273.697 44.8324 273.356 43.4432 272.674 42.233C271.992 41.0227 271.046 40.0767 269.836 39.3949C268.643 38.696 267.254 38.3466 265.668 38.3466C264.015 38.3466 262.549 38.7301 261.271 39.4972C260.009 40.2472 259.021 41.2614 258.305 42.5398C257.589 43.8011 257.222 45.2074 257.205 46.7585V53.1761C257.205 55.1193 257.563 56.7983 258.279 58.2131C259.012 59.6278 260.043 60.7188 261.373 61.4858C262.702 62.2528 264.279 62.6364 266.103 62.6364C267.313 62.6364 268.421 62.4659 269.427 62.125C270.433 61.7841 271.293 61.2727 272.009 60.5909C272.725 59.9091 273.271 59.0739 273.646 58.0852L283.719 58.75C283.208 61.1705 282.16 63.2841 280.575 65.0909C279.006 66.8807 276.978 68.2784 274.489 69.2841C272.018 70.2727 269.163 70.767 265.924 70.767ZM291.058 70V30.7273H301.617V37.5795H302.026C302.742 35.142 303.944 33.3011 305.631 32.0568C307.319 30.7955 309.262 30.1648 311.461 30.1648C312.006 30.1648 312.594 30.1989 313.225 30.267C313.856 30.3352 314.41 30.429 314.887 30.5483V40.2131C314.376 40.0597 313.668 39.9233 312.765 39.804C311.862 39.6847 311.035 39.625 310.285 39.625C308.683 39.625 307.251 39.9744 305.989 40.6733C304.745 41.3551 303.756 42.3097 303.023 43.5369C302.308 44.7642 301.95 46.179 301.95 47.7812V70H291.058ZM358.327 30.7273L344.597 70H332.325L318.594 30.7273H330.1L338.256 58.8267H338.665L346.796 30.7273H358.327ZM380.533 70.767C376.494 70.767 373.016 69.9489 370.102 68.3125C367.204 66.6591 364.971 64.3239 363.403 61.3068C361.835 58.2727 361.05 54.6847 361.05 50.5426C361.05 46.5028 361.835 42.9574 363.403 39.9062C364.971 36.8551 367.178 34.4773 370.025 32.7727C372.888 31.0682 376.246 30.2159 380.099 30.2159C382.69 30.2159 385.102 30.6335 387.335 31.4688C389.585 32.2869 391.545 33.5227 393.215 35.1761C394.903 36.8295 396.215 38.9091 397.153 41.4148C398.09 43.9034 398.559 46.8182 398.559 50.1591V53.1506H365.397V46.4006H388.306C388.306 44.8324 387.965 43.4432 387.283 42.233C386.602 41.0227 385.656 40.0767 384.445 39.3949C383.252 38.696 381.863 38.3466 380.278 38.3466C378.624 38.3466 377.158 38.7301 375.88 39.4972C374.619 40.2472 373.63 41.2614 372.914 42.5398C372.198 43.8011 371.832 45.2074 371.815 46.7585V53.1761C371.815 55.1193 372.173 56.7983 372.888 58.2131C373.621 59.6278 374.653 60.7188 375.982 61.4858C377.312 62.2528 378.888 62.6364 380.712 62.6364C381.923 62.6364 383.031 62.4659 384.036 62.125C385.042 61.7841 385.903 61.2727 386.619 60.5909C387.335 59.9091 387.88 59.0739 388.255 58.0852L398.329 58.75C397.817 61.1705 396.769 63.2841 395.184 65.0909C393.616 66.8807 391.587 68.2784 389.099 69.2841C386.627 70.2727 383.772 70.767 380.533 70.767Z" fill="#7C7C7C"/>
</g>
<defs>
<clipPath id="clip0_1_15">
<rect width="401.5" height="87" fill="white"/>
</clipPath>
</defs>
</svg>
